<svg width="39" height="33" viewBox="0 0 39 33" fill="none" xmlns="http://www.w3.org/2000/svg">
<path d="M5.70239 26.3825V22.0355L9.64901 22.4931L11.9941 28.4988C11.7653 29.3682 9.99219 29.7381 9.13423 29.8144C6.84634 29.7228 5.89305 27.4883 5.70239 26.3825Z" fill="#263590"/>
<path d="M32.7566 26.3825V22.0355L28.81 22.4931L26.4649 28.4988C26.6937 29.3682 28.4668 29.7381 29.3248 29.8144C31.6126 29.7228 32.5659 27.4883 32.7566 26.3825Z" fill="#263590"/>
<circle cx="19.6015" cy="15.4006" r="15.2145" fill="url(#paint0_radial_1_2544)"/>
<path d="M25.0921 1.21557C20.5621 -0.568986 15.8071 0.472005 13.9958 1.21557L19.8872 6.24893C23.5097 5.31471 29.6222 3.00013 25.0921 1.21557Z" fill="#096C35"/>
<path d="M27.3802 8.19373C23.3993 12.3119 22.7853 19.6713 22.976 22.8362L21.832 8.19373H27.3802Z" fill="#04622A"/>
<path d="M11.4792 8.42242C15.4601 12.5406 16.074 19.9 15.8834 23.0649L17.0273 8.42242H11.4792Z" fill="#04622A"/>
<path d="M20.0017 32.9029C16.0208 33.3147 15.5975 28.9944 15.8835 26.7828L17.0847 7.96487C20.4593 7.64076 26.8769 7.24419 25.5499 8.25086C24.2229 9.25753 23.3192 10.7675 23.0332 11.3967V29.4711C22.9417 31.6217 20.9741 32.6551 20.0017 32.9029Z" fill="url(#paint1_linear_1_2544)"/>
<path d="M0.0969941 11.2251C-0.635132 15.9381 2.95686 16.3538 4.84437 15.9724C3.88346 12.7694 7.60891 9.757 9.59175 8.65118C15.0369 7.09542 16.1313 11.5873 15.9979 14.0277L19.6585 9.39475L19.3725 4.30419C17.1761 1.74175 13.4621 1.10114 11.8796 1.10114C3.18565 1.42144 0.402047 7.98388 0.0969941 11.2251Z" fill="url(#paint2_radial_1_2544)"/>
<path d="M4.32969 16.144C3.78059 10.5158 8.25724 8.61303 10.5642 8.36517C8.2763 8.73124 7.47555 10.8819 7.36116 11.9114C7.36116 14.7484 5.34018 15.9152 4.32969 16.144Z" fill="#17145E"/>
<path d="M24.4057 9.33751C18.9148 12.1745 16.4362 22.1878 15.8833 26.8399V11.8542C16.9815 4.3499 22.4801 1.63493 25.0921 1.21548C32.9281 -0.0428729 37.1607 5.44806 38.0187 8.42235C40.5354 14.92 36.7794 16.2774 34.5868 16.144L32.9281 10.5387C29.542 7.10681 25.8356 8.30796 24.4057 9.33751Z" fill="#2E3190"/>
<path d="M34.6442 16.2013C35.1933 10.573 30.7166 8.67028 28.4097 8.42242C30.6976 8.78849 31.4983 10.9391 31.6127 11.9687C31.6127 14.8056 33.6337 15.9725 34.6442 16.2013Z" fill="#17145E"/>
<defs>
<radialGradient id="paint0_radial_1_2544" cx="0" cy="0" r="1" gradientUnits="userSpaceOnUse" gradientTransform="translate(19.6015 15.4006) rotate(90) scale(15.2145)">
<stop stop-color="#5DA539"/>
<stop offset="1" stop-color="#016933"/>
</radialGradient>
<linearGradient id="paint1_linear_1_2544" x1="20.7701" y1="7.60797" x2="20.7701" y2="32.9304" gradientUnits="userSpaceOnUse">
<stop stop-color="#095BB0"/>
<stop offset="1" stop-color="#2E338D"/>
</linearGradient>
<radialGradient id="paint2_radial_1_2544" cx="0" cy="0" r="1" gradientUnits="userSpaceOnUse" gradientTransform="translate(1.58413 13.9705) rotate(-7.40691) scale(11.5357 15.139)">
<stop stop-color="#2E328E"/>
<stop offset="1" stop-color="#0168BC"/>
</radialGradient>
</defs>
</svg>
